<svg width="260" height="211" viewBox="0 0 260 211" fill="none" xmlns="http://www.w3.org/2000/svg">
<g clip-path="url(#clip0_1_117)">
<rect width="260" height="211" rx="20" fill="#FFEB3B"/>
<path d="M156.249 10.6935V20.915H176.426V31.6513H31.7473V126.718H21.1863V95.3401H10.5985V200.419H62.6888V190.439H21.2669V137.524H31.613V179.617H114.548V190.278H73.701V200.543H165.79V210.989H0V0.0429025H52.2675V10.377H10.6791V84.4107H20.9768V21.1134H145.167V10.6023H63.0326V0H260V211H176.727V200.65H249.358V169.342H238.943V190.326C237.917 190.326 237.132 190.326 236.343 190.326C199.965 190.326 163.587 190.305 127.209 190.375C124.969 190.375 124.588 189.624 124.588 187.602C124.642 157.908 124.615 128.214 124.604 98.5203C124.604 97.5014 124.604 96.4824 124.604 95.308H114.79V169.004H83.6012V158.557H104.073V42.2215H135.401C135.401 43.1439 135.401 43.9965 135.401 44.8546C135.391 88.5884 135.374 132.317 135.364 176.051C135.364 176.64 135.417 177.23 135.364 177.815C135.219 179.236 135.788 179.772 137.244 179.735C140.483 179.654 143.722 179.713 146.961 179.713C172.956 179.713 198.95 179.713 224.944 179.719C225.959 179.719 226.974 179.719 228.231 179.719V95.2436H238.878V158.321H249.391V10.6935H156.255H156.249ZM114.951 52.8935V84.4054H124.438V52.8935H114.951Z" fill="#272727"/>
<path d="M186.594 42.1893H217.59V63.2759H207.201V52.931H197.446V73.7763H228.108V31.7854H186.729V21.1724H238.83V84.5716H197.429V158.305H207.104V95.2275H217.563V168.993C216.908 169.047 216.274 169.138 215.64 169.138C206.733 169.149 197.822 169.095 188.915 169.197C187.008 169.218 186.605 168.553 186.611 166.794C186.637 125.94 186.611 85.0811 186.6 44.2271C186.6 43.6426 186.6 43.058 186.6 42.1893H186.594Z" fill="#272727"/>
<path d="M62.9144 169.149V52.9149H52.9658V169.02H42.4586V42.377H93.872V147.81H83.4883V52.931H73.5774C73.5291 53.9392 73.4485 54.9367 73.4485 55.9342C73.4324 92.4603 73.4216 128.981 73.4109 165.507C73.4109 166.242 73.5828 167.046 73.341 167.69C73.1262 168.269 72.4654 169.063 71.9659 169.09C69.1081 169.224 66.2449 169.154 62.9198 169.154L62.9144 169.149Z" fill="#272727"/>
<path d="M145.522 84.5663H165.806V52.9256H156.201V73.8353H145.538V42.2644H176.436V95.1471H156.276V158.316H165.972V105.83H176.41V168.993C175.69 169.052 175.051 169.154 174.417 169.154C165.51 169.165 156.604 169.106 147.697 169.202C145.812 169.224 145.366 168.596 145.371 166.816C145.409 140.146 145.382 113.472 145.382 86.8025C145.382 86.159 145.463 85.5101 145.527 84.5716L145.522 84.5663Z" fill="#272727"/>
</g>
<defs>
<clipPath id="clip0_1_117">
<rect width="260" height="211" rx="20" fill="white"/>
</clipPath>
</defs>
</svg>
